<svg width="42" height="42" viewBox="0 0 42 42" fill="none" xmlns="http://www.w3.org/2000/svg">
<path opacity="0.2" d="M5.43047 12.239C5.31159 12.4432 5.24929 12.6754 5.25001 12.9117V29.0882C5.25126 29.3219 5.31411 29.5511 5.4322 29.7527C5.5503 29.9544 5.71947 30.1213 5.92266 30.2367L20.3602 38.3578C20.5548 38.469 20.7759 38.5257 21 38.5218L21.1477 21L5.43047 12.239Z" fill="#F8D57E"/>
<path d="M36.75 29.0882V12.9117C36.7487 12.678 36.6859 12.4488 36.5678 12.2472C36.4497 12.0456 36.2805 11.8786 36.0773 11.7632L21.6398 3.64215C21.4453 3.52983 21.2246 3.4707 21 3.4707C20.7754 3.4707 20.5547 3.52983 20.3602 3.64215L5.92266 11.7632C5.71947 11.8786 5.55029 12.0456 5.4322 12.2472C5.3141 12.4488 5.25125 12.678 5.25 12.9117V29.0882C5.25125 29.3219 5.3141 29.5511 5.4322 29.7527C5.55029 29.9544 5.71947 30.1213 5.92266 30.2367L20.3602 38.3578C20.5547 38.4701 20.7754 38.5292 21 38.5292C21.2246 38.5292 21.4453 38.4701 21.6398 38.3578L36.0773 30.2367C36.2805 30.1213 36.4497 29.9544 36.5678 29.7527C36.6859 29.5511 36.7487 29.3219 36.75 29.0882V29.0882Z" stroke="#F8D57E" stroke-width="2" stroke-linecap="round" stroke-linejoin="round"/>
<path d="M29.0391 25.0195V16.4883L13.125 7.71094" stroke="#F8D57E" stroke-width="2" stroke-linecap="round" stroke-linejoin="round"/>
<path d="M36.5695 12.239L21.1476 21L5.43042 12.239" stroke="#F8D57E" stroke-width="2" stroke-linecap="round" stroke-linejoin="round"/>
<path d="M21.1477 21L21 38.5219" stroke="#F8D57E" stroke-width="2" stroke-linecap="round" stroke-linejoin="round"/>
</svg>
