<svg width="42" height="42" viewBox="0 0 42 42" fill="none" xmlns="http://www.w3.org/2000/svg">
<path opacity="0.2" d="M29.0391 11.2875C29.7901 12.6551 30.185 14.1897 30.1875 15.75V16.3898C30.1901 16.9824 29.9897 17.5579 29.6195 18.0207C29.2493 18.4834 28.7318 18.8053 28.1531 18.9328C25.8055 19.4575 23.4054 19.7107 21 19.6875C18.5946 19.7107 16.1945 19.4575 13.8469 18.9328C13.2682 18.8053 12.7507 18.4834 12.3805 18.0207C12.0103 17.5579 11.8099 16.9824 11.8125 16.3898V15.8812C11.8135 14.2708 12.2317 12.6881 13.0266 11.2875C6.87422 12.5508 2.625 15.2578 2.625 18.375C2.625 22.7226 10.8445 26.25 21 26.25C31.1555 26.25 39.375 22.7226 39.375 18.375C39.375 15.2578 35.1586 12.5672 29.0391 11.2875Z" fill="#009379"/>
<path d="M27.6938 30.9586L28.3337 34.8305" stroke="#009379" stroke-width="2" stroke-linecap="round" stroke-linejoin="round"/>
<path d="M21 31.5V36.75" stroke="#009379" stroke-width="2" stroke-linecap="round" stroke-linejoin="round"/>
<path d="M14.3063 30.9586L13.6665 34.8305" stroke="#009379" stroke-width="2" stroke-linecap="round" stroke-linejoin="round"/>
<path d="M29.0391 11.2875C35.1586 12.5672 39.375 15.2578 39.375 18.375C39.375 22.7226 31.1555 26.25 21 26.25C10.8445 26.25 2.625 22.7226 2.625 18.375C2.625 15.2578 6.87422 12.5508 13.0266 11.2875" stroke="#009379" stroke-width="2" stroke-linecap="round" stroke-linejoin="round"/>
<path d="M11.8125 16.3898C11.8099 16.9824 12.0104 17.558 12.3805 18.0207C12.7507 18.4834 13.2682 18.8053 13.8469 18.9328C16.1945 19.4575 18.5946 19.7107 21 19.6875C23.4054 19.7107 25.8056 19.4575 28.1532 18.9328C28.7318 18.8053 29.2494 18.4834 29.6195 18.0207C29.9897 17.558 30.1902 16.9824 30.1875 16.3898V15.75C30.1876 14.5337 29.9462 13.3296 29.4773 12.2074C29.0085 11.0851 28.3214 10.0672 27.4561 9.2125C26.5908 8.35784 25.5643 7.68351 24.4364 7.2286C23.3084 6.7737 22.1013 6.54728 20.8852 6.56249C15.8321 6.62811 11.8125 10.8445 11.8125 15.8812V16.3898Z" stroke="#009379" stroke-width="2" stroke-linecap="round" stroke-linejoin="round"/>
</svg>
