<svg width="26" height="26" viewBox="0 0 26 26" fill="none" xmlns="http://www.w3.org/2000/svg">
<path opacity="0.2" d="M20.8079 4.00159H17.6067C17.1647 4.00159 16.8064 4.3599 16.8064 4.80189V8.00311C16.8064 8.44511 17.1647 8.80342 17.6067 8.80342H20.8079C21.2499 8.80342 21.6082 8.44511 21.6082 8.00311V4.80189C21.6082 4.3599 21.2499 4.00159 20.8079 4.00159Z" fill="#009379"/>
<path opacity="0.2" d="M4.80225 4.04651H8.00342C8.42022 4.04674 8.7583 4.38551 8.7583 4.80237V8.00354C8.75807 8.4202 8.42008 8.75819 8.00342 8.75842H4.80225C4.38539 8.75842 4.04662 8.42035 4.04639 8.00354V4.80237C4.04639 4.38537 4.38524 4.04651 4.80225 4.04651Z" fill="#009379" stroke="#009379" stroke-width="0.0905107"/>
<path opacity="0.2" d="M17.6072 16.8513H20.8083C21.2252 16.8515 21.5632 17.1903 21.5632 17.6071V20.8083C21.563 21.225 21.225 21.5629 20.8083 21.5632H17.6072C17.1903 21.5632 16.8516 21.2251 16.8513 20.8083V17.6071C16.8513 17.1901 17.1902 16.8513 17.6072 16.8513Z" fill="#009379" stroke="#009379" stroke-width="0.0905107"/>
<path opacity="0.2" d="M4.80225 16.8513H8.00342C8.42022 16.8515 8.7583 17.1903 8.7583 17.6071V20.8083C8.75807 21.225 8.42008 21.5629 8.00342 21.5632H4.80225C4.38539 21.5632 4.04662 21.2251 4.04639 20.8083V17.6071C4.04639 17.1901 4.38524 16.8513 4.80225 16.8513Z" fill="#009379" stroke="#009379" stroke-width="0.0905107"/>
<path d="M20.8079 4.00159H17.6067C17.1647 4.00159 16.8064 4.3599 16.8064 4.80189V8.00311C16.8064 8.44511 17.1647 8.80342 17.6067 8.80342H20.8079C21.2499 8.80342 21.6082 8.44511 21.6082 8.00311V4.80189C21.6082 4.3599 21.2499 4.00159 20.8079 4.00159Z" stroke="#009379" stroke-width="1.44817" stroke-linecap="round" stroke-linejoin="round"/>
<path d="M8.00299 4.00159H4.80177C4.35977 4.00159 4.00146 4.3599 4.00146 4.80189V8.00311C4.00146 8.44511 4.35977 8.80342 4.80177 8.80342H8.00299C8.44499 8.80342 8.80329 8.44511 8.80329 8.00311V4.80189C8.80329 4.3599 8.44499 4.00159 8.00299 4.00159Z" stroke="#009379" stroke-width="1.44817" stroke-linecap="round" stroke-linejoin="round"/>
<path d="M20.8079 16.8063H17.6067C17.1647 16.8063 16.8064 17.1646 16.8064 17.6066V20.8079C16.8064 21.2499 17.1647 21.6082 17.6067 21.6082H20.8079C21.2499 21.6082 21.6082 21.2499 21.6082 20.8079V17.6066C21.6082 17.1646 21.2499 16.8063 20.8079 16.8063Z" stroke="#009379" stroke-width="1.44817" stroke-linecap="round" stroke-linejoin="round"/>
<path d="M8.00299 16.8063H4.80177C4.35977 16.8063 4.00146 17.1646 4.00146 17.6066V20.8079C4.00146 21.2499 4.35977 21.6082 4.80177 21.6082H8.00299C8.44499 21.6082 8.80329 21.2499 8.80329 20.8079V17.6066C8.80329 17.1646 8.44499 16.8063 8.00299 16.8063Z" stroke="#009379" stroke-width="1.44817" stroke-linecap="round" stroke-linejoin="round"/>
<path d="M6.40234 16.8065V8.80341" stroke="#009379" stroke-width="1.44817" stroke-linecap="round" stroke-linejoin="round"/>
<path d="M16.8065 19.2073H8.80347" stroke="#009379" stroke-width="1.44817" stroke-linecap="round" stroke-linejoin="round"/>
<path d="M19.2073 8.80341V16.8065" stroke="#009379" stroke-width="1.44817" stroke-linecap="round" stroke-linejoin="round"/>
<path d="M8.80347 6.4024H16.8065" stroke="#009379" stroke-width="1.44817" stroke-linecap="round" stroke-linejoin="round"/>
</svg>
