<svg width="42" height="42" viewBox="0 0 42 42" fill="none" xmlns="http://www.w3.org/2000/svg">
<path opacity="0.2" d="M34.125 6.5625H28.875C28.1501 6.5625 27.5625 7.15013 27.5625 7.875V13.125C27.5625 13.8499 28.1501 14.4375 28.875 14.4375H34.125C34.8499 14.4375 35.4375 13.8499 35.4375 13.125V7.875C35.4375 7.15013 34.8499 6.5625 34.125 6.5625Z" fill="#009379"/>
<path opacity="0.2" d="M7.875 6.625H13.125C13.8154 6.625 14.375 7.18464 14.375 7.875V13.125C14.375 13.8154 13.8154 14.375 13.125 14.375H7.875C7.18464 14.375 6.625 13.8154 6.625 13.125V7.875C6.625 7.18464 7.18464 6.625 7.875 6.625Z" fill="#009379" stroke="#009379" stroke-width="0.125"/>
<path opacity="0.2" d="M28.875 27.625H34.125C34.8154 27.625 35.375 28.1846 35.375 28.875V34.125C35.375 34.8154 34.8154 35.375 34.125 35.375H28.875C28.1846 35.375 27.625 34.8154 27.625 34.125V28.875C27.625 28.1846 28.1846 27.625 28.875 27.625Z" fill="#009379" stroke="#009379" stroke-width="0.125"/>
<path opacity="0.2" d="M7.875 27.625H13.125C13.8154 27.625 14.375 28.1846 14.375 28.875V34.125C14.375 34.8154 13.8154 35.375 13.125 35.375H7.875C7.18464 35.375 6.625 34.8154 6.625 34.125V28.875C6.625 28.1846 7.18464 27.625 7.875 27.625Z" fill="#009379" stroke="#009379" stroke-width="0.125"/>
<path d="M34.125 6.5625H28.875C28.1501 6.5625 27.5625 7.15013 27.5625 7.875V13.125C27.5625 13.8499 28.1501 14.4375 28.875 14.4375H34.125C34.8499 14.4375 35.4375 13.8499 35.4375 13.125V7.875C35.4375 7.15013 34.8499 6.5625 34.125 6.5625Z" stroke="#009379" stroke-width="2" stroke-linecap="round" stroke-linejoin="round"/>
<path d="M13.125 6.5625H7.875C7.15013 6.5625 6.5625 7.15013 6.5625 7.875V13.125C6.5625 13.8499 7.15013 14.4375 7.875 14.4375H13.125C13.8499 14.4375 14.4375 13.8499 14.4375 13.125V7.875C14.4375 7.15013 13.8499 6.5625 13.125 6.5625Z" stroke="#009379" stroke-width="2" stroke-linecap="round" stroke-linejoin="round"/>
<path d="M34.125 27.5625H28.875C28.1501 27.5625 27.5625 28.1501 27.5625 28.875V34.125C27.5625 34.8499 28.1501 35.4375 28.875 35.4375H34.125C34.8499 35.4375 35.4375 34.8499 35.4375 34.125V28.875C35.4375 28.1501 34.8499 27.5625 34.125 27.5625Z" stroke="#009379" stroke-width="2" stroke-linecap="round" stroke-linejoin="round"/>
<path d="M13.125 27.5625H7.875C7.15013 27.5625 6.5625 28.1501 6.5625 28.875V34.125C6.5625 34.8499 7.15013 35.4375 7.875 35.4375H13.125C13.8499 35.4375 14.4375 34.8499 14.4375 34.125V28.875C14.4375 28.1501 13.8499 27.5625 13.125 27.5625Z" stroke="#009379" stroke-width="2" stroke-linecap="round" stroke-linejoin="round"/>
<path d="M10.5 27.5625V14.4375" stroke="#009379" stroke-width="2" stroke-linecap="round" stroke-linejoin="round"/>
<path d="M27.5625 31.5H14.4375" stroke="#009379" stroke-width="2" stroke-linecap="round" stroke-linejoin="round"/>
<path d="M31.5 14.4375V27.5625" stroke="#009379" stroke-width="2" stroke-linecap="round" stroke-linejoin="round"/>
<path d="M14.4375 10.5H27.5625" stroke="#009379" stroke-width="2" stroke-linecap="round" stroke-linejoin="round"/>
</svg>
