<svg width="26" height="26" viewBox="0 0 26 26" fill="none" xmlns="http://www.w3.org/2000/svg">
<path opacity="0.2" d="M6.97269 21.8383C6.89822 21.9139 6.80946 21.974 6.71156 22.015C6.61367 22.056 6.5086 22.0771 6.40247 22.0771C6.29634 22.0771 6.19127 22.056 6.09338 22.015C5.99548 21.974 5.90672 21.9139 5.83225 21.8383L3.77147 19.7775C3.69585 19.7031 3.6358 19.6143 3.59481 19.5164C3.55382 19.4185 3.53271 19.3134 3.53271 19.2073C3.53271 19.1012 3.55382 18.9961 3.59481 18.8982C3.6358 18.8003 3.69585 18.7116 3.77147 18.6371L14.4055 8.00305L17.6067 11.2043L6.97269 21.8383Z" fill="#009379"/>
<path d="M21.6082 12.8049V17.6067" stroke="#009379" stroke-width="1.44817" stroke-linecap="round" stroke-linejoin="round"/>
<path d="M19.2073 15.2058H24.0091" stroke="#009379" stroke-width="1.44817" stroke-linecap="round" stroke-linejoin="round"/>
<path d="M8.40308 4.00159V8.00311" stroke="#009379" stroke-width="1.44817" stroke-linecap="round" stroke-linejoin="round"/>
<path d="M6.40234 6.00226H10.4039" stroke="#009379" stroke-width="1.44817" stroke-linecap="round" stroke-linejoin="round"/>
<path d="M16.8064 18.407V21.6082" stroke="#009379" stroke-width="1.44817" stroke-linecap="round" stroke-linejoin="round"/>
<path d="M15.2058 20.0076H18.407" stroke="#009379" stroke-width="1.44817" stroke-linecap="round" stroke-linejoin="round"/>
<path d="M18.6498 3.76464L3.77366 18.6408C3.46113 18.9533 3.46113 19.46 3.77366 19.7726L5.84274 21.8416C6.15528 22.1542 6.662 22.1542 6.97454 21.8416L21.8507 6.96552C22.1632 6.65298 22.1632 6.14626 21.8507 5.83372L19.7816 3.76464C19.469 3.4521 18.9623 3.4521 18.6498 3.76464Z" stroke="#009379" stroke-width="1.44817" stroke-linecap="round" stroke-linejoin="round"/>
<path d="M14.4055 8.00305L17.6067 11.2043" stroke="#009379" stroke-width="1.44817" stroke-linecap="round" stroke-linejoin="round"/>
</svg>
