<svg width="26" height="26" viewBox="0 0 26 26" fill="none" xmlns="http://www.w3.org/2000/svg">
<path opacity="0.2" d="M3.31122 7.46289C3.23873 7.5874 3.20074 7.72898 3.20118 7.87305V17.7368C3.20194 17.8793 3.24026 18.019 3.31227 18.142C3.38428 18.2649 3.48744 18.3667 3.61133 18.4371L12.4147 23.389C12.5334 23.4568 12.6682 23.4913 12.8048 23.489L12.8949 12.8049L3.31122 7.46289Z" fill="#009379"/>
<path d="M22.4085 17.7368V7.87309C22.4077 7.73061 22.3694 7.59085 22.2974 7.46791C22.2254 7.34496 22.1222 7.24318 21.9983 7.17282L13.195 2.22093C13.0764 2.15245 12.9418 2.11639 12.8048 2.11639C12.6679 2.11639 12.5333 2.15245 12.4147 2.22093L3.61133 7.17282C3.48743 7.24318 3.38428 7.34496 3.31227 7.46791C3.24026 7.59085 3.20194 7.73061 3.20117 7.87309V17.7368C3.20194 17.8793 3.24026 18.0191 3.31227 18.142C3.38428 18.265 3.48743 18.3668 3.61133 18.4371L12.4147 23.389C12.5333 23.4575 12.6679 23.4935 12.8048 23.4935C12.9418 23.4935 13.0764 23.4575 13.195 23.389L21.9983 18.4371C22.1222 18.3668 22.2254 18.265 22.2974 18.142C22.3694 18.0191 22.4077 17.8793 22.4085 17.7368V17.7368Z" stroke="#009379" stroke-width="1.44817" stroke-linecap="round" stroke-linejoin="round"/>
<path d="M17.7069 15.2558V10.0538L8.00317 4.70178" stroke="#009379" stroke-width="1.44817" stroke-linecap="round" stroke-linejoin="round"/>
<path d="M22.2985 7.46289L12.8949 12.8049L3.31128 7.46289" stroke="#009379" stroke-width="1.44817" stroke-linecap="round" stroke-linejoin="round"/>
<path d="M12.895 12.805L12.8049 23.4891" stroke="#009379" stroke-width="1.44817" stroke-linecap="round" stroke-linejoin="round"/>
</svg>
