<svg width="42" height="42" viewBox="0 0 42 42" fill="none" xmlns="http://www.w3.org/2000/svg">
<path opacity="0.2" d="M16.8 32.55L9.45 25.2L6.21797 34.1086C6.12862 34.3424 6.10885 34.597 6.16105 34.8417C6.21325 35.0865 6.3352 35.3109 6.51216 35.4879C6.68911 35.6648 6.91352 35.7868 7.15827 35.839C7.40302 35.8912 7.65765 35.8714 7.89141 35.782L16.8 32.55Z" fill="#F8D57E"/>
<path opacity="0.2" d="M16.0102 9.03851C16.2157 8.99339 16.4294 9.00054 16.6313 9.06C16.8333 9.11957 17.0171 9.22975 17.1654 9.37933H17.1664L32.6205 24.8344C32.7701 24.9827 32.8803 25.1665 32.9398 25.3686C32.9993 25.5705 33.0064 25.7841 32.9613 25.9897C32.9161 26.1955 32.8199 26.3868 32.6811 26.5453C32.5423 26.7038 32.3654 26.825 32.1674 26.8969L25.4779 29.3276L12.6713 16.5209L15.1029 9.83246C15.1749 9.63445 15.296 9.45759 15.4545 9.31879C15.613 9.17998 15.8044 9.08372 16.0102 9.03851Z" fill="#F8D57E" stroke="#F8D57E" stroke-width="0.125"/>
<path d="M6.21797 34.1086L15.0445 9.81092C15.1201 9.603 15.247 9.41756 15.4134 9.27181C15.5798 9.12607 15.7804 9.02476 15.9965 8.97729C16.2125 8.92982 16.4371 8.93773 16.6493 9.0003C16.8615 9.06286 17.0544 9.17804 17.2102 9.33514L32.6648 24.7898C32.8219 24.9456 32.9371 25.1385 32.9997 25.3507C33.0622 25.5629 33.0702 25.7874 33.0227 26.0035C32.9752 26.2196 32.8739 26.4201 32.7282 26.5866C32.5824 26.753 32.397 26.8799 32.1891 26.9554L7.89141 35.782C7.65765 35.8714 7.40302 35.8911 7.15827 35.8389C6.91352 35.7867 6.68911 35.6648 6.51216 35.4878C6.3352 35.3109 6.21325 35.0865 6.16105 34.8417C6.10885 34.597 6.12862 34.3423 6.21797 34.1086V34.1086Z" stroke="#F8D57E" stroke-width="2" stroke-linecap="round" stroke-linejoin="round"/>
<path d="M27.5625 11.8125C27.5625 11.8125 27.5625 7.875 31.5 7.875C35.4375 7.875 35.4375 3.9375 35.4375 3.9375" stroke="#F8D57E" stroke-width="2" stroke-linecap="round" stroke-linejoin="round"/>
<path d="M16.8 32.55L9.45001 25.2" stroke="#F8D57E" stroke-width="2" stroke-linecap="round" stroke-linejoin="round"/>
<path d="M23.625 2.625V6.5625" stroke="#F8D57E" stroke-width="2" stroke-linecap="round" stroke-linejoin="round"/>
<path d="M35.4375 18.375L38.0625 21" stroke="#F8D57E" stroke-width="2" stroke-linecap="round" stroke-linejoin="round"/>
<path d="M35.4375 13.125L39.375 11.8125" stroke="#F8D57E" stroke-width="2" stroke-linecap="round" stroke-linejoin="round"/>
<path d="M12.6 16.5375L25.4625 29.4" stroke="#F8D57E" stroke-width="2" stroke-linecap="round" stroke-linejoin="round"/>
</svg>
