<svg width="26" height="26" viewBox="0 0 26 26" fill="none" xmlns="http://www.w3.org/2000/svg">
<path opacity="0.2" d="M17.7067 6.88263C18.1646 7.71656 18.4055 8.65228 18.407 9.60367V9.99381C18.4086 10.3551 18.2864 10.7061 18.0606 10.9882C17.8349 11.2704 17.5194 11.4667 17.1665 11.5444C15.7351 11.8644 14.2716 12.0188 12.8049 12.0046C11.3381 12.0188 9.87465 11.8644 8.44319 11.5444C8.09034 11.4667 7.77478 11.2704 7.54906 10.9882C7.32335 10.7061 7.20112 10.3551 7.20272 9.99381V9.6837C7.2033 8.70173 7.45835 7.73667 7.943 6.88263C4.19157 7.65292 1.60059 9.30355 1.60059 11.2043C1.60059 13.8553 6.61249 16.0061 12.8049 16.0061C18.9972 16.0061 24.0091 13.8553 24.0091 11.2043C24.0091 9.30355 21.4381 7.66293 17.7067 6.88263Z" fill="#009379"/>
<path d="M16.8865 18.8772L17.2766 21.2381" stroke="#009379" stroke-width="1.44817" stroke-linecap="round" stroke-linejoin="round"/>
<path d="M12.8049 19.2073V22.4086" stroke="#009379" stroke-width="1.44817" stroke-linecap="round" stroke-linejoin="round"/>
<path d="M8.7234 18.8772L8.33325 21.2381" stroke="#009379" stroke-width="1.44817" stroke-linecap="round" stroke-linejoin="round"/>
<path d="M17.7067 6.88263C21.4381 7.66293 24.0091 9.30355 24.0091 11.2043C24.0091 13.8553 18.9972 16.0061 12.8049 16.0061C6.6125 16.0061 1.60059 13.8553 1.60059 11.2043C1.60059 9.30355 4.19157 7.65292 7.943 6.88263" stroke="#009379" stroke-width="1.44817" stroke-linecap="round" stroke-linejoin="round"/>
<path d="M7.20265 9.99382C7.20105 10.3551 7.32328 10.7061 7.549 10.9882C7.77471 11.2704 8.09027 11.4667 8.44313 11.5444C9.87459 11.8644 11.3381 12.0188 12.8048 12.0046C14.2715 12.0188 15.735 11.8644 17.1664 11.5444C17.5193 11.4667 17.8349 11.2704 18.0606 10.9882C18.2863 10.7061 18.4085 10.3551 18.4069 9.99382V9.60367C18.407 8.86206 18.2598 8.12781 17.9739 7.44353C17.688 6.75924 17.2691 6.13853 16.7414 5.6174C16.2138 5.09627 15.5879 4.68509 14.9001 4.40771C14.2123 4.13033 13.4763 3.99227 12.7348 4.00154C9.65359 4.04155 7.20265 6.61253 7.20265 9.6837V9.99382Z" stroke="#009379" stroke-width="1.44817" stroke-linecap="round" stroke-linejoin="round"/>
</svg>
