<svg width="42" height="42" viewBox="0 0 42 42" fill="none" xmlns="http://www.w3.org/2000/svg">
<path opacity="0.2" d="M11.4351 35.8148C11.313 35.9389 11.1674 36.0373 11.0069 36.1046C10.8463 36.1718 10.674 36.2064 10.5 36.2064C10.3259 36.2064 10.1536 36.1718 9.99307 36.1046C9.83252 36.0373 9.68695 35.9389 9.56482 35.8148L6.18513 32.4352C6.06112 32.313 5.96264 32.1675 5.89542 32.0069C5.8282 31.8464 5.79358 31.6741 5.79358 31.5C5.79358 31.3259 5.8282 31.1536 5.89542 30.9931C5.96264 30.8325 6.06112 30.687 6.18513 30.5648L23.625 13.125L28.875 18.375L11.4351 35.8148Z" fill="#FF6250"/>
<path d="M35.4375 21V28.875" stroke="#FF6250" stroke-width="2.375" stroke-linecap="round" stroke-linejoin="round"/>
<path d="M31.5 24.9375H39.375" stroke="#FF6250" stroke-width="2.375" stroke-linecap="round" stroke-linejoin="round"/>
<path d="M13.7812 6.5625V13.125" stroke="#FF6250" stroke-width="2.375" stroke-linecap="round" stroke-linejoin="round"/>
<path d="M10.5 9.84375H17.0625" stroke="#FF6250" stroke-width="2.375" stroke-linecap="round" stroke-linejoin="round"/>
<path d="M27.5625 30.1875V35.4375" stroke="#FF6250" stroke-width="2.375" stroke-linecap="round" stroke-linejoin="round"/>
<path d="M24.9375 32.8125H30.1875" stroke="#FF6250" stroke-width="2.375" stroke-linecap="round" stroke-linejoin="round"/>
<path d="M30.5857 6.17398L6.18882 30.5708C5.67626 31.0834 5.67626 31.9144 6.18882 32.427L9.5821 35.8203C10.0947 36.3328 10.9257 36.3328 11.4383 35.8203L35.8351 11.4234C36.3477 10.9109 36.3477 10.0798 35.8351 9.56727L32.4418 6.17398C31.9293 5.66142 31.0982 5.66142 30.5857 6.17398Z" stroke="#FF6250" stroke-width="2.375" stroke-linecap="round" stroke-linejoin="round"/>
<path d="M23.625 13.125L28.875 18.375" stroke="#FF6250" stroke-width="2.375" stroke-linecap="round" stroke-linejoin="round"/>
</svg>
