<svg width="26" height="26" viewBox="0 0 26 26" fill="none" xmlns="http://www.w3.org/2000/svg">
<path d="M13.5047 20.2404L19.3196 23.9325C20.0696 24.4055 20.9926 23.7017 20.7734 22.8364L19.0889 16.2138C19.0433 16.0302 19.0506 15.8375 19.1098 15.6579C19.1689 15.4783 19.2777 15.319 19.4235 15.1985L24.6384 10.8488C25.3192 10.2835 24.973 9.14125 24.0846 9.08356L17.2775 8.64513C17.0917 8.63432 16.9132 8.56965 16.7636 8.459C16.614 8.34836 16.4999 8.19654 16.4352 8.0221L13.8969 1.63027C13.8298 1.44556 13.7073 1.28599 13.5464 1.17324C13.3854 1.06048 13.1936 1 12.997 1C12.8005 1 12.6087 1.06048 12.4477 1.17324C12.2867 1.28599 12.1643 1.44556 12.0971 1.63027L9.5588 8.0221C9.49411 8.19654 9.38001 8.34836 9.23043 8.459C9.08086 8.56965 8.9023 8.63432 8.71656 8.64513L1.90938 9.08356C1.02098 9.14125 0.674853 10.2835 1.35557 10.8488L6.57057 15.1985C6.71633 15.319 6.82507 15.4783 6.88427 15.6579C6.94346 15.8375 6.9507 16.0302 6.90516 16.2138L5.34758 22.3518C5.08222 23.3902 6.18983 24.2324 7.07822 23.6671L12.4894 20.2404C12.6411 20.1439 12.8172 20.0927 12.997 20.0927C13.1768 20.0927 13.3529 20.1439 13.5047 20.2404V20.2404Z" stroke="#F8D57E" stroke-width="2" stroke-linecap="round" stroke-linejoin="round"/>
</svg>
