<svg width="26" height="26" viewBox="0 0 26 26" fill="none" xmlns="http://www.w3.org/2000/svg">
<path d="M13.5046 20.2404L19.3196 23.9325C20.0695 24.4055 20.9925 23.7017 20.7733 22.8364L19.0888 16.2138C19.0433 16.0302 19.0505 15.8375 19.1097 15.6579C19.1689 15.4783 19.2777 15.319 19.4234 15.1985L24.6384 10.8488C25.3191 10.2835 24.973 9.14125 24.0846 9.08356L17.2774 8.64513C17.0917 8.63432 16.9131 8.56965 16.7636 8.459C16.614 8.34836 16.4999 8.19654 16.4352 8.0221L13.8969 1.63027C13.8297 1.44556 13.7073 1.28599 13.5463 1.17324C13.3853 1.06048 13.1935 1 12.997 1C12.8004 1 12.6086 1.06048 12.4476 1.17324C12.2866 1.28599 12.1642 1.44556 12.097 1.63027L9.55877 8.0221C9.49408 8.19654 9.37998 8.34836 9.2304 8.459C9.08083 8.56965 8.90226 8.63432 8.71653 8.64513L1.90935 9.08356C1.02095 9.14125 0.674822 10.2835 1.35554 10.8488L6.57054 15.1985C6.7163 15.319 6.82504 15.4783 6.88424 15.6579C6.94343 15.8375 6.95067 16.0302 6.90513 16.2138L5.34755 22.3518C5.08219 23.3902 6.18979 24.2324 7.07819 23.6671L12.4893 20.2404C12.6411 20.1439 12.8172 20.0927 12.997 20.0927C13.1768 20.0927 13.3529 20.1439 13.5046 20.2404Z" fill="#F8D57E" stroke="#F8D57E" stroke-width="2" stroke-linecap="round" stroke-linejoin="round"/>
</svg>
