<svg width="70" height="15" viewBox="0 0 70 15" fill="none" xmlns="http://www.w3.org/2000/svg">
<g clip-path="url(#clip0_727_1989)">
<path d="M24.7086 8.59235L24.2914 9.77192H24.2566C24.1871 9.50594 24.0596 9.10118 23.851 8.61548L21.6142 3.00676H19.4238V11.946H20.8725V6.42981C20.8725 6.08288 20.8725 5.68969 20.8609 5.20399C20.8493 4.96114 20.8261 4.77611 20.8146 4.63734H20.8493C20.9189 4.98427 21 5.23868 21.0579 5.40058L23.7467 11.9229H24.7665L27.4321 5.34276C27.4901 5.19243 27.548 4.89175 27.6059 4.63734H27.6407C27.6059 5.2965 27.5828 5.88629 27.5712 6.24478V11.9113H29.1126V2.98363H27.0033L24.7086 8.59235ZM30.5728 5.50466H32.0795V11.9113H30.5728V5.50466ZM31.3377 2.7986C31.0828 2.7986 30.8742 2.89112 30.7003 3.05302C30.5265 3.21492 30.4338 3.42308 30.4338 3.67749C30.4338 3.92035 30.5265 4.1285 30.7003 4.29041C30.8742 4.45231 31.0828 4.53326 31.3377 4.53326C31.5927 4.53326 31.8129 4.44074 31.9752 4.29041C32.149 4.1285 32.2417 3.92035 32.2417 3.67749C32.2417 3.43464 32.149 3.22648 31.9752 3.05302C31.8245 2.89112 31.6043 2.7986 31.3377 2.7986ZM37.4222 5.44684C37.144 5.38902 36.8543 5.35433 36.5761 5.35433C35.8924 5.35433 35.2665 5.50466 34.745 5.80534C34.2235 6.10601 33.8063 6.52233 33.5397 7.04273C33.2616 7.57469 33.1225 8.1876 33.1225 8.89302C33.1225 9.50594 33.2616 10.0495 33.5281 10.5467C33.7947 11.0324 34.1656 11.4256 34.6639 11.6916C35.1391 11.9576 35.6954 12.0964 36.3212 12.0964C37.0397 12.0964 37.654 11.946 38.1407 11.6685L38.1523 11.6569V10.2692L38.0944 10.3154C37.8742 10.4773 37.6192 10.6161 37.3642 10.6971C37.0977 10.7896 36.8543 10.8358 36.6457 10.8358C36.043 10.8358 35.5679 10.6624 35.2318 10.2807C34.8841 9.91069 34.7103 9.40186 34.7103 8.76582C34.7103 8.10665 34.8841 7.58625 35.2434 7.20463C35.6026 6.823 36.0778 6.62641 36.6573 6.62641C37.144 6.62641 37.6424 6.78831 38.0944 7.11211L38.1523 7.15837V5.68969L38.1407 5.67813C37.9437 5.59718 37.7235 5.50466 37.4222 5.44684ZM42.394 5.40058C42.0232 5.40058 41.6755 5.51623 41.3742 5.75908C41.1192 5.96724 40.9454 6.26791 40.7947 6.62641H40.7831V5.50466H39.2765V11.9113H40.7831V8.63861C40.7831 8.08352 40.899 7.62094 41.154 7.28558C41.4089 6.93865 41.7334 6.76518 42.1275 6.76518C42.2665 6.76518 42.4056 6.79987 42.5795 6.823C42.7417 6.86926 42.8576 6.91552 42.9387 6.97334L42.9967 7.0196V5.51623L42.9619 5.50466C42.8576 5.43528 42.649 5.40058 42.394 5.40058ZM46.4967 5.36589C45.442 5.36589 44.596 5.67813 44.005 6.29104C43.4023 6.90395 43.1126 7.74815 43.1126 8.81207C43.1126 9.80661 43.4139 10.6161 43.9934 11.2059C44.5728 11.7841 45.3609 12.0848 46.346 12.0848C47.3775 12.0848 48.2003 11.7726 48.7914 11.1481C49.394 10.5236 49.6838 9.69097 49.6838 8.66174C49.6838 7.64407 49.4056 6.83457 48.8377 6.24478C48.293 5.655 47.4934 5.36589 46.4967 5.36589ZM47.702 10.2923C47.4238 10.6508 46.9834 10.8243 46.4387 10.8243C45.894 10.8243 45.4536 10.6508 45.1407 10.2692C44.8278 9.91069 44.6771 9.39029 44.6771 8.73112C44.6771 8.04882 44.8394 7.52843 45.1407 7.15837C45.4536 6.78831 45.8824 6.60328 46.4271 6.60328C46.9603 6.60328 47.3775 6.77674 47.6788 7.13524C47.9801 7.49373 48.1424 8.01413 48.1424 8.69643C48.1192 9.39029 47.9917 9.93382 47.702 10.2923ZM53.0447 8.16447C52.5695 7.96787 52.2682 7.81754 52.1291 7.69033C52.0132 7.57469 51.9553 7.41278 51.9553 7.20463C51.9553 7.03116 52.0248 6.85769 52.1987 6.74205C52.3725 6.62641 52.5695 6.56859 52.8593 6.56859C53.1142 6.56859 53.3808 6.61484 53.6357 6.68423C53.8907 6.75362 54.1225 6.8577 54.3079 6.99647L54.3659 7.04273V5.63187L54.3311 5.62031C54.1573 5.55092 53.9255 5.48154 53.6473 5.42371C53.3692 5.37746 53.1142 5.35433 52.9056 5.35433C52.1871 5.35433 51.596 5.52779 51.1324 5.90942C50.6689 6.26791 50.4487 6.75362 50.4487 7.32027C50.4487 7.62094 50.495 7.88692 50.5993 8.10665C50.7036 8.32637 50.8543 8.53453 51.0629 8.70799C51.2715 8.8699 51.5728 9.05492 51.9901 9.22839C52.3377 9.37873 52.6043 9.49437 52.7665 9.58689C52.9288 9.6794 53.0331 9.78348 53.1142 9.86443C53.1722 9.95695 53.2069 10.0726 53.2069 10.2229C53.2069 10.6508 52.8824 10.859 52.2218 10.859C51.9669 10.859 51.7003 10.8127 51.3874 10.7086C51.0745 10.6045 50.7848 10.4542 50.5414 10.2807L50.4834 10.2345V11.7032L50.5182 11.7147C50.7384 11.8188 51.005 11.8882 51.3295 11.9691C51.654 12.027 51.9437 12.0732 52.1987 12.0732C52.9752 12.0732 53.6126 11.8998 54.0646 11.5181C54.5281 11.1481 54.7715 10.6739 54.7715 10.061C54.7715 9.63314 54.6556 9.25152 54.4007 8.96241C54.0646 8.68486 53.6473 8.39576 53.0447 8.16447ZM58.7467 5.36589C57.692 5.36589 56.846 5.67813 56.255 6.29104C55.6639 6.90395 55.3626 7.74815 55.3626 8.81207C55.3626 9.80661 55.6639 10.6161 56.2434 11.2059C56.8228 11.7841 57.6109 12.0848 58.596 12.0848C59.6275 12.0848 60.4503 11.7726 61.0414 11.1481C61.644 10.5236 61.9338 9.69097 61.9338 8.66174C61.9338 7.64407 61.6556 6.83457 61.0877 6.24478C60.543 5.655 59.7434 5.36589 58.7467 5.36589ZM59.9404 10.2923C59.6622 10.6508 59.2218 10.8243 58.6771 10.8243C58.1208 10.8243 57.692 10.6508 57.3791 10.2692C57.0662 9.91069 56.9156 9.39029 56.9156 8.73112C56.9156 8.04882 57.0778 7.52843 57.3791 7.15837C57.692 6.78831 58.1208 6.60328 58.6656 6.60328C59.1871 6.60328 59.6159 6.77674 59.9172 7.13524C60.2185 7.49373 60.3808 8.01413 60.3808 8.69643C60.3808 9.39029 60.2301 9.93382 59.9404 10.2923ZM69.9884 6.74205V5.50466H68.4702V3.60811L68.4238 3.61967L66.9867 4.04755L66.952 4.05912V5.50466H64.6804V4.69516C64.6804 4.3251 64.7732 4.03599 64.9354 3.85096C65.0977 3.66593 65.341 3.57341 65.6424 3.57341C65.851 3.57341 66.0712 3.61967 66.3146 3.72375L66.3725 3.75844V2.45167L66.3377 2.44011C66.1291 2.37072 65.851 2.32446 65.4917 2.32446C65.0397 2.32446 64.6457 2.42854 64.2864 2.60201C63.9271 2.7986 63.6606 3.06458 63.4636 3.42308C63.2665 3.77001 63.1622 4.1632 63.1622 4.61421V5.50466H62.1076V6.73049H63.1622V11.9113H64.6804V6.74205H66.952V10.0379C66.952 11.3909 67.5894 12.0732 68.8642 12.0732C69.0728 12.0732 69.293 12.0385 69.5016 12.0038C69.7218 11.9576 69.8841 11.8998 69.9768 11.8535L69.9884 11.8419V10.6045L69.9305 10.6508C69.8377 10.7086 69.7566 10.7549 69.6175 10.7896C69.5016 10.8243 69.3973 10.8358 69.3162 10.8358C69.0149 10.8358 68.8063 10.7665 68.6556 10.593C68.5165 10.4311 68.447 10.1651 68.447 9.77192V6.74205H69.9884Z" fill="#737373"/>
<path d="M0 0H7.1043V7.08896H0V0Z" fill="#F25022"/>
<path d="M7.84598 0H14.9503V7.08896H7.84598V0Z" fill="#7FBA00"/>
<path d="M0 7.8291H7.1043V14.9181H0V7.8291Z" fill="#00A4EF"/>
<path d="M7.84598 7.8291H14.9503V14.9181H7.84598V7.8291Z" fill="#FFB900"/>
</g>
<defs>
<clipPath id="clip0_727_1989">
<rect width="70" height="14.918" fill="white"/>
</clipPath>
</defs>
</svg>
