<svg width="17" height="17" viewBox="0 0 17 17" fill="none" xmlns="http://www.w3.org/2000/svg">
<path d="M7.38922 0.628193C7.69916 -0.209398 8.88383 -0.209399 9.19377 0.628192L10.8663 5.14826C10.9638 5.41159 11.1714 5.61922 11.4347 5.71666L15.9548 7.38923C16.7924 7.69917 16.7924 8.88385 15.9548 9.19378L11.4347 10.8664C11.1714 10.9638 10.9638 11.1714 10.8663 11.4348L9.19377 15.9548C8.88383 16.7924 7.69916 16.7924 7.38922 15.9548L5.71664 11.4348C5.6192 11.1714 5.41158 10.9638 5.14824 10.8664L0.628177 9.19378C-0.209413 8.88385 -0.209414 7.69917 0.628177 7.38924L5.14824 5.71666C5.41158 5.61922 5.6192 5.41159 5.71664 5.14826L7.38922 0.628193Z" fill="#F8F9FF"/>
</svg>
