<svg width="70" height="20" viewBox="0 0 70 20" fill="none" xmlns="http://www.w3.org/2000/svg">
<g clip-path="url(#clip0_727_2001)">
<path d="M7.58062 3.31061V8.95207H2.44039V3.31061H0V16.7773H2.44039V11.319H7.58062V16.7773H10.021V3.31061H7.58062Z" fill="#33475B"/>
<path d="M17.8312 12.4242C17.8312 12.9639 17.6185 13.4815 17.2398 13.8631C16.8612 14.2447 16.3477 14.4591 15.8123 14.4591C15.2768 14.4591 14.7633 14.2447 14.3847 13.8631C14.0061 13.4815 13.7934 12.9639 13.7934 12.4242V6.65619H11.4785V12.4242C11.4785 13.5816 11.9347 14.6916 12.7466 15.51C13.5586 16.3284 14.6598 16.7882 15.8081 16.7882C16.9564 16.7882 18.0576 16.3284 18.8695 15.51C19.6815 14.6916 20.1376 13.5816 20.1376 12.4242V6.65619H17.8312V12.4242Z" fill="#33475B"/>
<path d="M34.9821 7.25035C34.9821 6.06807 35.7581 5.69325 36.6083 5.69325C37.2934 5.69325 38.1985 6.21871 38.7904 6.85625L40.3065 5.05571C39.5496 4.02408 38.0144 3.31061 36.7577 3.31061C34.2468 3.31061 32.4306 4.79298 32.4306 7.25035C32.4306 11.8096 37.9594 10.3633 37.9594 12.9147C37.9594 13.7017 37.2013 14.3971 36.3333 14.3971C34.9642 14.3971 34.5206 13.7222 33.8917 13.0087L32.2094 14.7719C33.2855 16.1036 34.6127 16.7797 36.2029 16.7797C38.5883 16.7797 40.5074 15.2793 40.5074 12.934C40.5074 7.87222 34.9786 9.44499 34.9786 7.25035" fill="#33475B"/>
<path d="M69.1857 14.6261C67.8178 14.6261 67.4292 14.0295 67.4292 13.116V9.07259H69.5551V7.02378H67.4292V4.32056L65.0821 5.38232V13.6185C65.0821 15.7252 66.5241 16.787 68.5017 16.787C68.8119 16.7927 69.1219 16.7676 69.4272 16.7122L69.9999 14.5875C69.7417 14.6056 69.4451 14.6237 69.1857 14.6237" fill="#33475B"/>
<path d="M26.6422 6.72369C25.4955 6.72369 24.6956 7.05873 23.922 7.82402V3.39136H21.6036V11.6071C21.6036 14.6827 23.8096 16.7894 26.2883 16.7894C29.0383 16.7894 31.4572 14.6453 31.4572 11.7577C31.4572 8.90627 29.2308 6.72489 26.6422 6.72489V6.72369ZM26.6278 14.4381C26.1076 14.4381 25.599 14.2826 25.1664 13.9912C24.7338 13.6999 24.3967 13.2858 24.1976 12.8013C23.9985 12.3168 23.9464 11.7837 24.0479 11.2694C24.1494 10.7551 24.3999 10.2826 24.7678 9.91183C25.1357 9.54103 25.6044 9.28851 26.1146 9.1862C26.6249 9.0839 27.1538 9.1364 27.6345 9.33708C28.1151 9.53776 28.526 9.8776 28.815 10.3136C29.1041 10.7496 29.2583 11.2623 29.2583 11.7867C29.2583 12.4899 28.9812 13.1642 28.4879 13.6615C27.9946 14.1587 27.3255 14.4381 26.6278 14.4381Z" fill="#33475B"/>
<path d="M51.816 11.6348C51.816 8.74241 49.4019 6.60321 46.6471 6.60321C44.1684 6.60321 41.9624 8.70987 41.9624 11.7855V20.006H44.2808V15.5673C45.0532 16.3314 45.8543 16.6677 46.9998 16.6677C49.5884 16.6677 51.8148 14.4875 51.8148 11.6348H51.816ZM49.6207 11.6059C49.6207 12.1303 49.4665 12.6429 49.1774 13.079C48.8884 13.515 48.4775 13.8548 47.9969 14.0555C47.5162 14.2562 46.9873 14.3087 46.4771 14.2064C45.9668 14.1041 45.4981 13.8515 45.1302 13.4807C44.7623 13.1099 44.5118 12.6375 44.4103 12.1232C44.3088 11.6089 44.3609 11.0758 44.56 10.5913C44.7591 10.1068 45.0962 9.6927 45.5288 9.40136C45.9614 9.11002 46.47 8.95452 46.9902 8.95452C47.6879 8.95452 48.357 9.23386 48.8503 9.7311C49.3436 10.2283 49.6207 10.9027 49.6207 11.6059Z" fill="#33475B"/>
<path d="M59.3058 6.48989V4.14219C59.6136 3.99723 59.8743 3.76712 60.0574 3.47865C60.2405 3.19019 60.3385 2.85524 60.3401 2.51279V2.45856C60.3401 1.9791 60.1511 1.51929 59.8148 1.18027C59.4784 0.841243 59.0222 0.650782 58.5466 0.650782H58.4928C58.0171 0.650782 57.5609 0.841243 57.2246 1.18027C56.8882 1.51929 56.6992 1.9791 56.6992 2.45856V2.51279C56.7008 2.85524 56.7989 3.19019 56.982 3.47865C57.1651 3.76712 57.4257 3.99723 57.7335 4.14219V6.48989C56.8488 6.62631 56.0156 6.99592 55.3182 7.5613L48.9309 2.54653C48.9761 2.38117 49.0002 2.21066 49.0026 2.03915C49.0034 1.63627 48.8855 1.24222 48.664 0.906858C48.4425 0.571492 48.1273 0.309872 47.7583 0.15509C47.3892 0.000307517 46.983 -0.0406837 46.5908 0.0373011C46.1987 0.115286 45.8383 0.308743 45.5552 0.593203C45.2722 0.877663 45.0792 1.24035 45.0006 1.63538C44.9221 2.03041 44.9616 2.44004 45.114 2.81246C45.2665 3.18488 45.5251 3.50336 45.8572 3.72761C46.1893 3.95187 46.5798 4.07182 46.9796 4.07229C47.3291 4.07072 47.6721 3.97681 47.9744 3.79992L54.2648 8.73273C53.6996 9.5932 53.4047 10.6054 53.4186 11.6372C53.4324 12.6691 53.7544 13.6729 54.3426 14.5176L52.4295 16.4459C52.2748 16.3961 52.1136 16.3697 51.9512 16.3676C51.6231 16.3678 51.3024 16.4661 51.0296 16.65C50.7569 16.8339 50.5443 17.0951 50.4189 17.4008C50.2934 17.7064 50.2607 18.0426 50.3247 18.367C50.3888 18.6914 50.5468 18.9893 50.7789 19.2232C51.0109 19.4571 51.3065 19.6164 51.6283 19.6809C51.9501 19.7455 52.2837 19.7125 52.5869 19.586C52.8901 19.4596 53.1493 19.2454 53.3318 18.9705C53.5143 18.6956 53.6118 18.3723 53.612 18.0416C53.6099 17.8779 53.5837 17.7154 53.5343 17.5595L55.427 15.6517C56.0442 16.1304 56.7619 16.4604 57.5252 16.6164C58.2884 16.7724 59.077 16.7502 59.8304 16.5516C60.5838 16.353 61.2822 15.9832 61.872 15.4706C62.4617 14.958 62.9273 14.3161 63.2329 13.5941C63.5386 12.8721 63.6763 12.0892 63.6354 11.3053C63.5945 10.5214 63.3762 9.75737 62.9972 9.07166C62.6181 8.38595 62.0884 7.79678 61.4486 7.34927C60.8087 6.90177 60.0758 6.6078 59.3058 6.48989ZM58.5215 14.2103C58.0037 14.2098 57.4977 14.0546 57.0675 13.7644C56.6372 13.4741 56.3019 13.0618 56.1041 12.5796C55.9062 12.0973 55.8546 11.5668 55.9558 11.055C56.057 10.5432 56.3065 10.0731 56.6727 9.70421C57.0389 9.33528 57.5053 9.08405 58.0131 8.98227C58.5209 8.88049 59.0473 8.93273 59.5256 9.13238C60.004 9.33203 60.4129 9.67014 60.7007 10.104C60.9884 10.5378 61.1422 11.0479 61.1424 11.5697C61.1424 12.2697 60.8665 12.9411 60.3754 13.436C59.8844 13.931 59.2183 14.2091 58.5239 14.2091" fill="#FF7A59"/>
</g>
<defs>
<clipPath id="clip0_727_2001">
<rect width="70" height="20" fill="white"/>
</clipPath>
</defs>
</svg>
