<svg width="18" height="11" viewBox="0 0 18 11" fill="none" xmlns="http://www.w3.org/2000/svg">
<path fill-rule="evenodd" clip-rule="evenodd" d="M10.9055 1.77989H15.4251V0.485038H10.9055V1.77989ZM11.9762 4.60521C11.6882 4.89823 11.5066 5.2952 11.4323 5.79611H14.9474C14.9103 5.26154 14.7277 4.85764 14.4046 4.57947C14.0774 4.30327 13.6751 4.16567 13.1934 4.16567C12.6716 4.16567 12.2642 4.31218 11.9762 4.60521ZM15.0267 2.86688C15.5715 3.10644 16.0201 3.48658 16.3733 4.00531C16.6954 4.46267 16.9021 4.99328 16.9964 5.59616C17.0516 5.94858 17.0737 6.45939 17.0647 7.12364H11.3821C11.4162 7.89481 11.6852 8.43631 12.1989 8.74617C12.51 8.93921 12.8843 9.03622 13.3238 9.03622C13.7864 9.03622 14.1647 8.91842 14.4547 8.6838C14.6142 8.5561 14.7547 8.37989 14.8751 8.15418H16.9573C16.9021 8.60955 16.6493 9.07384 16.2017 9.54505C15.5033 10.2925 14.5249 10.6667 13.2676 10.6667C12.229 10.6667 11.3129 10.3519 10.5212 9.72027C9.72543 9.08968 9.33007 8.06211 9.33007 6.64055C9.33007 5.30709 9.6883 4.28448 10.4038 3.57271C11.1212 2.86292 12.0494 2.50555 13.1924 2.50555C13.8717 2.50555 14.4828 2.62632 15.0267 2.86688ZM2.10221 5.82384V8.59866H4.66302C5.12059 8.59866 5.47782 8.53728 5.73169 8.41552C6.19428 8.18783 6.42508 7.75621 6.42508 7.11671C6.42508 6.57422 6.20231 6.20299 5.75377 6.00005C5.5029 5.8872 5.15069 5.8278 4.69914 5.82384H2.10221ZM2.10221 1.80662V4.1023H4.66703C5.1236 4.1023 5.49588 4.01618 5.78287 3.84393C6.06785 3.67168 6.21134 3.36678 6.21134 2.9312C6.21134 2.44514 6.02269 2.12538 5.64539 1.96897C5.31827 1.86107 4.90284 1.80662 4.3981 1.80662H2.10221ZM7.82994 1.10874C8.15204 1.55124 8.3136 2.07988 8.3136 2.69661C8.3136 3.33117 8.15204 3.84297 7.82592 4.22905C7.64329 4.44486 7.37537 4.64285 7.02115 4.82104C7.559 5.01507 7.9644 5.32096 8.24035 5.73971C8.51329 6.15746 8.65076 6.6663 8.65076 7.26422C8.65076 7.88096 8.49422 8.43434 8.18014 8.92337C7.98146 9.24708 7.7326 9.52031 7.43357 9.74206C7.09742 9.99647 6.70105 10.1697 6.24248 10.2647C5.7839 10.3588 5.28819 10.4043 4.75235 10.4043H0V0H5.09653C6.38296 0.018809 7.29309 0.388059 7.82994 1.10874Z" fill="#2D2D2D"/>
</svg>
