<svg width="70" height="22" viewBox="0 0 70 22" fill="none" xmlns="http://www.w3.org/2000/svg">
<g clip-path="url(#clip0_727_1971)">
<path d="M20.0664 15.4131C19.9566 15.148 19.8536 14.8694 19.7438 14.6315L19.236 13.4966L19.2154 13.4762C17.7056 10.2141 16.0928 6.89755 14.384 3.63541L14.3154 3.49949C14.1438 3.18007 13.9722 2.82667 13.7938 2.50046C13.5742 2.11308 13.3615 1.69852 13.0115 1.30434C12.6703 0.891907 12.2409 0.559616 11.7543 0.331447C11.2678 0.103279 10.7361 -0.0150757 10.1977 -0.0150757C9.65935 -0.0150757 9.12769 0.103279 8.64111 0.331447C8.15453 0.559616 7.72517 0.891907 7.384 1.30434C7.06145 1.69852 6.82126 2.11308 6.60165 2.50046C6.43008 2.85386 6.25851 3.20046 6.08008 3.51988L6.01145 3.6558C4.33008 6.91794 2.68988 10.2344 1.18008 13.4966L1.1389 13.5374C0.987922 13.8908 0.809491 14.2577 0.637922 14.6519C0.528118 14.8898 0.418315 15.148 0.308511 15.4335C0.0120624 16.1809 -0.0826029 16.9919 0.0338445 17.7866C0.150292 18.5813 0.473833 19.3322 0.97258 19.9654C1.47133 20.5986 2.12807 21.0921 2.87808 21.3974C3.62809 21.7026 4.44547 21.8091 5.24969 21.7063C6.0207 21.6058 6.76311 21.3515 7.43204 20.9587C8.3242 20.4626 9.18204 19.7422 10.1428 18.7024C11.1036 19.7422 11.982 20.4626 12.8536 20.9655C13.6918 21.4527 14.6409 21.7216 15.6124 21.7471C16.7375 21.7517 17.8262 21.3531 18.6777 20.6248C19.5291 19.8966 20.0857 18.8879 20.2448 17.7849C20.4286 16.9923 20.3664 16.1633 20.0664 15.4063V15.4131ZM10.2115 16.5412C9.03106 15.0461 8.26243 13.6733 8.00165 12.4975C7.8936 12.0619 7.87031 11.6098 7.93302 11.1655C7.98106 10.8189 8.11145 10.5131 8.28988 10.2548C8.70165 9.66357 9.42224 9.29658 10.2115 9.29658C10.5863 9.28524 10.958 9.36624 11.2934 9.5323C11.6288 9.69837 11.9173 9.9443 12.133 10.248C12.3115 10.5199 12.4418 10.8189 12.483 11.1655C12.5517 11.5597 12.5242 12.015 12.4144 12.4975C12.1536 13.6529 11.385 15.0393 10.2115 16.5412ZM18.9546 17.5471C18.8766 18.107 18.6518 18.637 18.3027 19.0841C17.9535 19.5313 17.4921 19.88 16.9644 20.0956C16.4428 20.3131 15.8664 20.3742 15.3036 20.3131C14.7546 20.2451 14.2056 20.0684 13.6428 19.7422C12.7085 19.1703 11.8683 18.4598 11.1516 17.6354C12.5928 15.8684 13.4644 14.2577 13.7938 12.8238C13.9517 12.1441 13.9722 11.5325 13.9036 10.9684C13.8179 10.4338 13.6166 9.92375 13.3134 9.47328C12.9673 8.98481 12.5052 8.58804 11.9679 8.31786C11.4306 8.04767 10.8345 7.91234 10.232 7.92376C8.96243 7.92376 7.83008 8.50823 7.14381 9.46648C6.83487 9.91581 6.63521 10.4299 6.56047 10.9684C6.47126 11.5393 6.49184 12.1713 6.67028 12.8238C6.99969 14.2577 7.89184 15.8888 9.31243 17.649C8.60796 18.4891 7.76582 19.2059 6.82126 19.7694C6.25165 20.0956 5.70949 20.2655 5.16047 20.3335C4.30667 20.4418 3.4442 20.212 2.76054 19.694C2.07688 19.1761 1.62729 18.4119 1.50949 17.5675C1.44086 17.0238 1.4889 16.4801 1.70851 15.8684C1.77714 15.6509 1.88008 15.4335 1.98988 15.1752C2.14086 14.8218 2.3193 14.4548 2.49086 14.0878L2.51831 14.0403C4.00067 10.7985 5.62028 7.48881 7.30165 4.24706L7.37028 4.11114C7.54184 3.78493 7.71341 3.43832 7.89184 3.11211C8.07028 2.76551 8.26243 2.4325 8.50949 2.16065C8.72334 1.90785 8.99056 1.70455 9.29232 1.56505C9.59407 1.42556 9.92304 1.35327 10.2561 1.35327C10.5891 1.35327 10.918 1.42556 11.2198 1.56505C11.5216 1.70455 11.7888 1.90785 12.0026 2.16065C12.2428 2.4325 12.4418 2.76551 12.6203 3.11211C12.7918 3.43832 12.9634 3.79172 13.1418 4.11114L13.2105 4.24706C14.885 7.48881 16.5046 10.7985 18.0144 14.0403L18.035 14.0607C18.2134 14.4141 18.3644 14.8082 18.536 15.148C18.6458 15.4131 18.7556 15.6238 18.8242 15.848C18.9546 16.4597 19.0232 17.0034 18.9546 17.5471ZM28.5075 16.3917C27.9904 16.3992 27.4782 16.2913 27.0089 16.076C26.5396 15.8607 26.1253 15.5435 25.7967 15.148C25.0584 14.3053 24.6665 13.2187 24.6987 12.1034C24.6874 10.9638 25.0919 9.85851 25.8379 8.99075C26.183 8.5902 26.6125 8.26943 27.0963 8.05103C27.58 7.83263 28.1063 7.72192 28.6379 7.72667C29.1382 7.71311 29.6337 7.82576 30.0779 8.05402C30.5221 8.28228 30.9003 8.61866 31.1771 9.03153L31.2458 7.96454H33.2497V16.1742H31.2389L31.1703 14.9781C30.8849 15.419 30.4905 15.7802 30.0244 16.0277C29.5584 16.2751 29.0362 16.4004 28.5075 16.3917ZM29.0291 14.4344C29.4271 14.4344 29.7771 14.3257 30.1066 14.1286C30.4085 13.9111 30.6556 13.6257 30.8477 13.2791C31.0193 12.9325 31.1085 12.5179 31.1085 12.0558C31.1353 11.6544 31.0564 11.253 30.8795 10.8909C30.7027 10.5288 30.434 10.2183 30.0997 9.98978C29.7785 9.79158 29.4076 9.68652 29.0291 9.68652C28.6506 9.68652 28.2797 9.79158 27.9585 9.98978C27.6566 10.2073 27.4095 10.4927 27.2173 10.8393C27.0359 11.2215 26.9466 11.6403 26.9566 12.0626C26.9298 12.464 27.0087 12.8654 27.1855 13.2275C27.3624 13.5896 27.6311 13.9001 27.9654 14.1286C28.2879 14.3257 28.6379 14.4344 29.0291 14.4344ZM36.6811 5.749C36.6811 5.98687 36.6399 6.20434 36.5301 6.38104C36.4203 6.55095 36.2693 6.70726 36.0703 6.81599C35.8713 6.92473 35.6585 6.96551 35.4389 6.96551C35.2193 6.96551 34.9997 6.92473 34.8007 6.81599C34.6124 6.71222 34.4542 6.56249 34.3409 6.38104C34.2346 6.18744 34.1825 5.96924 34.1899 5.749C34.1899 5.50434 34.2379 5.28687 34.3409 5.11696C34.4507 4.91308 34.6085 4.79075 34.8007 4.68201C34.9997 4.57327 35.2124 4.5257 35.4389 4.5257C35.6574 4.52072 35.8734 4.57195 36.0658 4.6744C36.2583 4.77684 36.4206 4.92699 36.5369 5.11017C36.6368 5.30831 36.6863 5.52761 36.6811 5.749ZM34.3477 16.1471V7.95094H36.5301V16.1607H34.3409L34.3477 16.1471ZM42.3634 10.0985V10.1257C42.2605 10.0781 42.1232 10.0577 42.0203 10.0374C41.883 10.0102 41.7732 10.0102 41.6428 10.0102C41.032 10.0102 40.5722 10.1869 40.2703 10.5539C39.9409 10.9276 39.7899 11.4509 39.7899 12.1238V16.1539H37.6007V7.94415H39.6115L39.6801 9.18784C39.8997 8.75289 40.1605 8.42667 40.5311 8.18201C40.8997 7.9443 41.3336 7.82558 41.7732 7.84221C41.9311 7.84221 42.082 7.8558 42.2124 7.88298C42.2811 7.90337 42.3222 7.90337 42.3634 7.92376V10.0985ZM43.2418 16.1471V4.58007H45.4242V8.99755C45.733 8.60337 46.083 8.29755 46.5222 8.05968C47.2176 7.72207 48.0075 7.62631 48.7645 7.78783C49.5215 7.94936 50.2016 8.35876 50.6948 8.94997C51.4348 9.79446 51.8268 10.8838 51.7928 12.0014C51.8041 13.141 51.3996 14.2463 50.6536 15.1141C50.3086 15.5146 49.879 15.8354 49.3953 16.0538C48.9115 16.2722 48.3853 16.3829 47.8536 16.3781C47.3534 16.3917 46.8579 16.279 46.4137 16.0508C45.9695 15.8225 45.5912 15.4861 45.3144 15.0733L45.2458 16.1403L43.2418 16.1607V16.1471ZM47.4624 14.4344C47.8536 14.4344 48.2036 14.3257 48.533 14.1286C48.835 13.9111 49.0821 13.6257 49.2742 13.2791C49.4526 12.9325 49.535 12.5179 49.535 12.0558C49.535 11.6005 49.4526 11.1859 49.2742 10.8393C49.094 10.5051 48.8408 10.2149 48.533 9.98978C48.2118 9.79158 47.8409 9.68652 47.4624 9.68652C47.084 9.68652 46.7131 9.79158 46.3918 9.98978C46.083 10.2073 45.8428 10.4927 45.6438 10.8393C45.4623 11.2215 45.3731 11.6403 45.383 12.0626C45.3563 12.464 45.4352 12.8654 45.612 13.2275C45.7888 13.5896 46.0575 13.9001 46.3918 14.1286C46.7144 14.3257 47.0644 14.4344 47.4624 14.4344ZM52.6164 16.1539V7.94415H54.6271L54.6958 9.01114C54.9485 8.60214 55.3069 8.26742 55.734 8.04159C56.1611 7.81577 56.6414 7.70705 57.1252 7.72667C57.6784 7.71721 58.2221 7.86947 58.6884 8.16442C59.1547 8.45936 59.5228 8.88389 59.7468 9.38493C59.9869 9.90143 60.1173 10.5403 60.1173 11.2539V16.1742H57.9281V11.5393C57.9281 10.9684 57.7977 10.5199 57.5369 10.1869C57.2762 9.86065 56.9193 9.68396 56.4664 9.68396C56.1369 9.68396 55.8487 9.75192 55.5948 9.90143C55.3546 10.0577 55.1556 10.2548 55.0046 10.5335C54.8519 10.8151 54.7762 11.1314 54.785 11.4509V16.1539H52.6164ZM61.2085 16.1539V4.57327H63.3977V8.99075C63.6943 8.59438 64.08 8.27191 64.5244 8.04894C64.9687 7.82598 65.4594 7.70866 65.9575 7.70628C66.4747 7.69879 66.9869 7.8067 67.4562 8.022C67.9254 8.2373 68.3397 8.55447 68.6683 8.94997C69.4031 9.7944 69.7923 10.8804 69.7595 11.9946C69.7714 13.1343 69.3668 14.2398 68.6203 15.1073C68.2752 15.5078 67.8457 15.8286 67.3619 16.047C66.8782 16.2654 66.3519 16.3761 65.8203 16.3713C65.32 16.3849 64.8245 16.2722 64.3803 16.044C63.9361 15.8157 63.5579 15.4793 63.2811 15.0665L63.2193 16.1335L61.2085 16.1539ZM65.4497 14.4344C65.8477 14.4344 66.1977 14.3257 66.5203 14.1286C66.8291 13.9111 67.0693 13.6257 67.2683 13.2791C67.4399 12.9325 67.5291 12.5179 67.5291 12.0558C67.5559 11.6544 67.477 11.253 67.3001 10.8909C67.1233 10.5288 66.8546 10.2183 66.5203 9.98978C66.1991 9.79158 65.8282 9.68652 65.4497 9.68652C65.0712 9.68652 64.7003 9.79158 64.3791 9.98978C64.0771 10.2073 63.8301 10.4927 63.6379 10.8393C63.4464 11.2181 63.3566 11.6394 63.3771 12.0626C63.3504 12.464 63.4293 12.8654 63.6061 13.2275C63.783 13.5896 64.0517 13.9001 64.386 14.1286C64.7085 14.3257 65.0379 14.4344 65.4497 14.4344Z" fill="#FF385C"/>
</g>
<defs>
<clipPath id="clip0_727_1971">
<rect width="70" height="21.7476" fill="white"/>
</clipPath>
</defs>
</svg>
