<svg width="70" height="22" viewBox="0 0 70 22" fill="none" xmlns="http://www.w3.org/2000/svg">
<g clip-path="url(#clip0_727_1980)">
<path fill-rule="evenodd" clip-rule="evenodd" d="M43.4266 17.0073C39.3588 20.0984 33.4627 21.7476 28.3864 21.7476C21.2684 21.7476 14.8605 19.0334 10.0126 14.5193C9.63173 14.1643 9.973 13.6806 10.4301 13.957C15.6618 17.0952 22.1307 18.9832 28.8129 18.9832C33.3195 18.9832 38.2771 18.0219 42.8355 16.0272C43.5241 15.7256 44.1 16.4921 43.4266 17.0073Z" fill="#FF9900"/>
<path fill-rule="evenodd" clip-rule="evenodd" d="M45.1179 15.0125C44.5999 14.3277 41.6809 14.689 40.3706 14.8492C39.9715 14.8994 39.9105 14.5413 40.2701 14.2837C42.595 12.5968 46.4099 13.0837 46.8547 13.6492C47.2996 14.2178 46.739 18.1602 44.5542 20.0418C44.219 20.3308 43.8991 20.1769 44.0484 19.7937C44.539 18.5308 45.639 15.7005 45.1179 15.0125Z" fill="#FF9900"/>
<path fill-rule="evenodd" clip-rule="evenodd" d="M40.4619 2.37488V0.735092C40.4619 0.486926 40.6448 0.320435 40.8641 0.320435H47.9851C48.2136 0.320435 48.3965 0.490068 48.3965 0.735092V2.13928C48.3934 2.37488 48.2015 2.68273 47.8602 3.16964L44.1702 8.60103C45.5414 8.56648 46.9887 8.77695 48.2319 9.49946C48.5123 9.66281 48.5884 9.90155 48.6098 10.1372V11.8869C48.6098 12.1256 48.3538 12.4052 48.0857 12.2607C45.8948 11.0764 42.9849 10.9476 40.5625 12.2733C40.3157 12.4115 40.0567 12.1351 40.0567 11.8963V10.2345C40.0567 9.96752 40.0597 9.51202 40.3187 9.10679L44.5937 2.78639H40.8733C40.6448 2.78639 40.4619 2.6199 40.4619 2.37488Z" fill="black"/>
<path fill-rule="evenodd" clip-rule="evenodd" d="M14.4857 12.6063H12.3193C12.1121 12.5906 11.9475 12.4304 11.9323 12.2262V0.763388C11.9323 0.534069 12.1182 0.35187 12.3497 0.35187H14.3699C14.5802 0.361288 14.7478 0.527785 14.763 0.735114V2.23354H14.8026C15.3297 0.785375 16.32 0.109985 17.6547 0.109985C19.0106 0.109985 19.8577 0.785375 20.4671 2.23354C20.9912 0.785375 22.1826 0.109985 23.4593 0.109985C24.3673 0.109985 25.3607 0.496371 25.967 1.36338C26.6526 2.32778 26.5124 3.72882 26.5124 4.95709L26.5094 12.1916C26.5094 12.4209 26.3235 12.6063 26.092 12.6063H23.9285C23.7122 12.5906 23.5385 12.4115 23.5385 12.1916V6.11624C23.5385 5.63248 23.5812 4.4262 23.4776 3.96756C23.3161 3.19793 22.8316 2.98118 22.2039 2.98118C21.6798 2.98118 21.1313 3.34243 20.9089 3.92044C20.6865 4.49845 20.7078 5.46598 20.7078 6.11624V12.1916C20.7078 12.4209 20.5219 12.6063 20.2904 12.6063H18.1269C17.9076 12.5906 17.7369 12.4115 17.7369 12.1916L17.7339 6.11624C17.7339 4.83772 17.938 2.95605 16.3993 2.95605C14.8422 2.95605 14.9032 4.79059 14.9032 6.11624V12.1916C14.9032 12.4209 14.7173 12.6063 14.4857 12.6063" fill="black"/>
<path fill-rule="evenodd" clip-rule="evenodd" d="M54.527 0.109985C57.7417 0.109985 59.4815 2.95605 59.4815 6.57488C59.4815 10.0712 57.5588 12.845 54.527 12.845C51.3702 12.845 49.6517 9.99895 49.6517 6.45237C49.6517 2.8838 51.3916 0.109985 54.527 0.109985ZM54.5453 2.45029C52.9486 2.45029 52.8481 4.69321 52.8481 6.09112C52.8481 7.49216 52.8267 10.4827 54.527 10.4827C56.2059 10.4827 56.2852 8.07017 56.2852 6.60001C56.2852 5.63248 56.2455 4.47646 55.9622 3.55919C55.7184 2.76129 55.2339 2.45029 54.5453 2.45029Z" fill="black"/>
<path fill-rule="evenodd" clip-rule="evenodd" d="M63.65 12.6063H61.4926C61.2763 12.5906 61.1026 12.4115 61.1026 12.1916L61.0996 0.72569C61.1179 0.515219 61.2976 0.35187 61.517 0.35187H63.525C63.7139 0.361288 63.8694 0.493231 63.912 0.672288V2.42516H63.9516C64.558 0.857627 65.4081 0.109985 66.9042 0.109985C67.8762 0.109985 68.8239 0.471241 69.4333 1.46077C70 2.37804 70 3.92044 70 5.02934V12.245C69.9756 12.4461 69.7959 12.6063 69.5826 12.6063H67.41C67.212 12.5906 67.0474 12.4398 67.0261 12.245V6.01886C67.0261 4.76546 67.1663 2.93092 65.6702 2.93092C65.143 2.93092 64.6585 3.29531 64.4178 3.84819C64.1131 4.54871 64.0735 5.24609 64.0735 6.01886V12.1916C64.0705 12.4209 63.8815 12.6063 63.65 12.6063" fill="black"/>
<path fill-rule="evenodd" clip-rule="evenodd" d="M34.7853 7.13086C34.7853 8.00102 34.8066 8.72667 34.38 9.49944C34.0357 10.1277 33.4872 10.5141 32.8808 10.5141C32.049 10.5141 31.5615 9.8607 31.5615 8.8963C31.5615 6.99264 33.216 6.6471 34.7853 6.6471V7.13086ZM36.97 12.5748C36.8268 12.7068 36.6196 12.7162 36.4581 12.6282C35.739 12.0125 35.608 11.7267 35.2149 11.1392C34.0265 12.3895 33.1825 12.7633 31.6437 12.7633C29.8186 12.7633 28.4017 11.6041 28.4017 9.28269C28.4017 7.47013 29.3524 6.23558 30.7113 5.63244C31.8875 5.09841 33.5299 5.00417 34.7853 4.85653V4.56752C34.7853 4.03663 34.8249 3.40836 34.5202 2.94973C34.2581 2.53821 33.7523 2.36858 33.3044 2.36858C32.4786 2.36858 31.7443 2.80523 31.5645 3.70993C31.528 3.91098 31.3847 4.10889 31.1867 4.11831L29.0873 3.88585C28.9105 3.84501 28.7125 3.69737 28.7643 3.41779C29.2457 0.791622 31.5493 0 33.6091 0C34.6634 0 36.0406 0.289005 36.8725 1.11204C37.9268 2.12669 37.8262 3.48062 37.8262 4.95391V8.43452C37.8262 9.48059 38.2467 9.93923 38.6428 10.5047C38.78 10.7057 38.8104 10.9476 38.6337 11.0984C38.1919 11.4785 37.4057 12.1853 36.973 12.5811L36.97 12.5748" fill="black"/>
<path fill-rule="evenodd" clip-rule="evenodd" d="M6.38358 7.13111C6.38358 8.00126 6.40491 8.72691 5.97832 9.49968C5.634 10.128 5.08858 10.5143 4.47917 10.5143C3.64732 10.5143 3.16284 9.86094 3.16284 8.89654C3.16284 6.99289 4.81739 6.64734 6.38358 6.64734V7.13111ZM8.56832 12.5751C8.42511 12.707 8.21791 12.7164 8.05641 12.6285C7.33731 12.0128 7.20933 11.7269 6.81321 11.1395C5.62486 12.3897 4.78388 12.7635 3.24207 12.7635C1.41993 12.7635 0 11.6044 0 9.28293C0 7.47037 0.953728 6.23582 2.30967 5.63268C3.48583 5.09865 5.12819 5.00441 6.38358 4.85677V4.56777C6.38358 4.03688 6.42319 3.40861 6.12153 2.94997C5.85644 2.53845 5.35063 2.36882 4.90576 2.36882C4.08001 2.36882 3.34262 2.80547 3.16284 3.71018C3.12628 3.91122 2.98307 4.10913 2.78806 4.11855L0.685588 3.88609C0.508858 3.84526 0.313846 3.69761 0.362599 3.41803C0.847081 0.791866 3.14761 0.000244141 5.20742 0.000244141C6.2617 0.000244141 7.63897 0.289249 8.47081 1.11228C9.52509 2.12694 9.42454 3.48086 9.42454 4.95415V8.43476C9.42454 9.48084 9.84504 9.93947 10.2412 10.5049C10.3813 10.706 10.4118 10.9478 10.2351 11.0986C9.79323 11.4787 9.0071 12.1855 8.57441 12.5813L8.56832 12.5751" fill="black"/>
</g>
<defs>
<clipPath id="clip0_727_1980">
<rect width="70" height="21.7476" fill="white"/>
</clipPath>
</defs>
</svg>
