<svg width="70" height="21" viewBox="0 0 70 21" fill="none" xmlns="http://www.w3.org/2000/svg">
<g clip-path="url(#clip0_727_1995)">
<path d="M52.0547 20.3715L57.8924 13.9059L52.0547 7.43939H58.2141L61.1054 10.5804L63.8896 7.43939H69.8341L64.0241 13.8792L69.9139 20.3715H63.7292L60.8641 17.2047L58.026 20.3715H52.0547Z" fill="#FF6600"/>
<path d="M52.0547 4.5405H45.443V7.4394H52.0547V11.8083H45.443V15.8184H52.0547V20.3715H40.5835V0H52.0547V4.5405Z" fill="#FF6600"/>
<path d="M35.7444 0V8.337H35.6912C34.6199 7.1232 33.2813 6.7014 31.7283 6.7014C28.5469 6.7014 26.1505 8.8332 25.3093 11.6517C24.35 8.5461 21.8759 6.6432 18.2073 6.6432C15.228 6.6432 12.8754 7.9614 11.6477 10.1094V7.4397H5.48952V4.5411H12.2098V0H0V20.3718H5.48952V11.8083H10.9611C10.798 12.4374 10.7109 13.1109 10.7109 13.8216C10.7109 18.0711 14.0043 21.0528 18.2073 21.0528C21.7417 21.0528 24.0709 19.4172 25.3029 16.4352H20.5986C19.9622 17.331 19.4795 17.5971 18.2073 17.5971C16.7321 17.5971 15.4603 16.3284 15.4603 14.8245H25.0393C25.4547 18.1998 28.122 21.1107 31.7824 21.1107C33.3614 21.1107 34.807 20.3451 35.6912 19.0524H35.7444V20.3712H40.5836V0H35.7444ZM15.613 11.8692C15.9183 10.5753 16.9363 9.7296 18.2073 9.7296C19.6064 9.7296 20.5727 10.5492 20.8268 11.8692C20.934 11.8692 15.613 11.8692 15.613 11.8692ZM32.8078 17.2698C31.024 17.2698 29.9156 15.6315 29.9156 13.9209C29.9156 12.0924 30.8797 10.3341 32.8078 10.3341C34.807 10.3341 35.6035 12.0924 35.6035 13.9209C35.6032 15.6549 34.7593 17.2698 32.8078 17.2698Z" fill="#652C8F"/>
</g>
<defs>
<clipPath id="clip0_727_1995">
<rect width="70" height="21" fill="white"/>
</clipPath>
</defs>
</svg>
