<svg width="70" height="24" viewBox="0 0 70 24" fill="none" xmlns="http://www.w3.org/2000/svg">
<g clip-path="url(#clip0_727_1973)">
<path d="M29.7886 12.0919C29.7886 15.3648 27.2176 17.7765 24.0625 17.7765C20.9073 17.7765 18.3364 15.3648 18.3364 12.0919C18.3364 8.796 20.9073 6.40735 24.0625 6.40735C27.2176 6.40735 29.7886 8.796 29.7886 12.0919ZM27.282 12.0919C27.282 10.0467 25.7919 8.64735 24.0625 8.64735C22.3331 8.64735 20.843 10.0467 20.843 12.0919C20.843 14.1166 22.3331 15.5365 24.0625 15.5365C25.7919 15.5365 27.282 14.1141 27.282 12.0919Z" fill="#EA4335"/>
<path d="M42.1415 12.0919C42.1415 15.3648 39.5705 17.7765 36.4154 17.7765C33.2603 17.7765 30.6893 15.3648 30.6893 12.0919C30.6893 8.79856 33.2603 6.40735 36.4154 6.40735C39.5705 6.40735 42.1415 8.796 42.1415 12.0919ZM39.6349 12.0919C39.6349 10.0467 38.1448 8.64735 36.4154 8.64735C34.686 8.64735 33.1959 10.0467 33.1959 12.0919C33.1959 14.1166 34.686 15.5365 36.4154 15.5365C38.1448 15.5365 39.6349 14.1141 39.6349 12.0919Z" fill="#FBBC05"/>
<path d="M53.9797 6.75078V16.9564C53.9797 21.1544 51.4937 22.869 48.5547 22.869C45.7882 22.869 44.1231 21.0263 43.4952 19.5193L45.6775 18.6146C46.0661 19.5398 47.0183 20.6316 48.5522 20.6316C50.4334 20.6316 51.5992 19.4757 51.5992 17.2998V16.4822H51.5117C50.9507 17.1716 49.8698 17.7739 48.5058 17.7739C45.6518 17.7739 43.0371 15.2981 43.0371 12.1124C43.0371 8.90364 45.6518 6.40735 48.5058 6.40735C49.8672 6.40735 50.9481 7.00964 51.5117 7.67856H51.5992V6.75334H53.9797V6.75078ZM51.7768 12.1124C51.7768 10.1108 50.436 8.64735 48.7297 8.64735C47.0003 8.64735 45.5514 10.1108 45.5514 12.1124C45.5514 14.0936 47.0003 15.5365 48.7297 15.5365C50.436 15.5365 51.7768 14.0936 51.7768 12.1124Z" fill="#4285F4"/>
<path d="M57.9044 0.76886V17.4279H55.4596V0.76886H57.9044Z" fill="#34A853"/>
<path d="M67.4317 13.9629L69.3773 15.2546C68.7493 16.1798 67.2361 17.7739 64.6214 17.7739C61.3788 17.7739 58.9571 15.2776 58.9571 12.0894C58.9571 8.70886 61.3993 6.40479 64.3409 6.40479C67.303 6.40479 68.7519 8.75243 69.2254 10.0211L69.4854 10.6669L61.8549 13.8142C62.439 14.9547 63.3475 15.5365 64.6214 15.5365C65.8979 15.5365 66.7832 14.9111 67.4317 13.9629ZM61.4431 11.9176L66.5438 9.80836C66.2633 9.09842 65.4192 8.60378 64.4258 8.60378C63.1519 8.60378 61.3788 9.72378 61.4431 11.9176Z" fill="#EA4335"/>
<path d="M9.08208 10.6131V8.2014H17.2427C17.3225 8.62172 17.3637 9.11893 17.3637 9.65714C17.3637 11.4666 16.867 13.704 15.2663 15.2981C13.7093 16.9128 11.7199 17.7739 9.08465 17.7739C4.2001 17.7739 0.0927429 13.8117 0.0927429 8.94721C0.0927429 4.08277 4.2001 0.120483 9.08465 0.120483C11.7869 0.120483 13.7119 1.17641 15.1582 2.5527L13.4494 4.25449C12.4122 3.2857 11.0071 2.5322 9.08208 2.5322C5.51517 2.5322 2.72546 5.39499 2.72546 8.94721C2.72546 12.4994 5.51517 15.3622 9.08208 15.3622C11.3957 15.3622 12.7133 14.437 13.5574 13.5964C14.242 12.9146 14.6924 11.9407 14.8699 10.6106L9.08208 10.6131Z" fill="#4285F4"/>
</g>
<defs>
<clipPath id="clip0_727_1973">
<rect width="70" height="23.5789" fill="white"/>
</clipPath>
</defs>
</svg>
