<svg width="255" height="26" viewBox="0 0 255 26" fill="none" xmlns="http://www.w3.org/2000/svg">
<path d="M70.0077 20.2404L75.8226 23.9325C76.5725 24.4055 77.4956 23.7017 77.2763 22.8364L75.5919 16.2138C75.5463 16.0302 75.5535 15.8375 75.6127 15.6579C75.6719 15.4783 75.7807 15.319 75.9264 15.1985L81.1414 10.8488C81.8222 10.2835 81.476 9.14125 80.5876 9.08356L73.7804 8.64513C73.5947 8.63432 73.4161 8.56965 73.2666 8.459C73.117 8.34836 73.0029 8.19654 72.9382 8.0221L70.3999 1.63027C70.3327 1.44556 70.2103 1.28599 70.0493 1.17324C69.8883 1.06048 69.6966 1 69.5 1C69.3034 1 69.1117 1.06048 68.9507 1.17324C68.7897 1.28599 68.6673 1.44556 68.6001 1.63027L66.0618 8.0221C65.9971 8.19654 65.883 8.34836 65.7334 8.459C65.5839 8.56965 65.4053 8.63432 65.2196 8.64513L58.4124 9.08356C57.524 9.14125 57.1778 10.2835 57.8586 10.8488L63.0736 15.1985C63.2193 15.319 63.3281 15.4783 63.3873 15.6579C63.4465 15.8375 63.4537 16.0302 63.4081 16.2138L61.8506 22.3518C61.5852 23.3902 62.6928 24.2324 63.5812 23.6671L68.9923 20.2404C69.1441 20.1439 69.3202 20.0927 69.5 20.0927C69.6798 20.0927 69.8559 20.1439 70.0077 20.2404Z" fill="#F8D57E" stroke="#F8D57E" stroke-width="2" stroke-linecap="round" stroke-linejoin="round"/>
<path d="M99.0077 20.2404L104.823 23.9325C105.573 24.4055 106.496 23.7017 106.276 22.8364L104.592 16.2138C104.546 16.0302 104.554 15.8375 104.613 15.6579C104.672 15.4783 104.781 15.319 104.926 15.1985L110.141 10.8488C110.822 10.2835 110.476 9.14125 109.588 9.08356L102.78 8.64513C102.595 8.63432 102.416 8.56965 102.267 8.459C102.117 8.34836 102.003 8.19654 101.938 8.0221L99.3999 1.63027C99.3327 1.44556 99.2103 1.28599 99.0493 1.17324C98.8883 1.06048 98.6966 1 98.5 1C98.3034 1 98.1117 1.06048 97.9507 1.17324C97.7897 1.28599 97.6673 1.44556 97.6001 1.63027L95.0618 8.0221C94.9971 8.19654 94.883 8.34836 94.7334 8.459C94.5839 8.56965 94.4053 8.63432 94.2196 8.64513L87.4124 9.08356C86.524 9.14125 86.1778 10.2835 86.8586 10.8488L92.0736 15.1985C92.2193 15.319 92.3281 15.4783 92.3873 15.6579C92.4465 15.8375 92.4537 16.0302 92.4081 16.2138L90.8506 22.3518C90.5852 23.3902 91.6928 24.2324 92.5812 23.6671L97.9923 20.2404C98.1441 20.1439 98.3202 20.0927 98.5 20.0927C98.6798 20.0927 98.8559 20.1439 99.0077 20.2404Z" fill="#F8D57E" stroke="#F8D57E" stroke-width="2" stroke-linecap="round" stroke-linejoin="round"/>
<path d="M128.008 20.2404L133.823 23.9325C134.573 24.4055 135.496 23.7017 135.276 22.8364L133.592 16.2138C133.546 16.0302 133.554 15.8375 133.613 15.6579C133.672 15.4783 133.781 15.319 133.926 15.1985L139.141 10.8488C139.822 10.2835 139.476 9.14125 138.588 9.08356L131.78 8.64513C131.595 8.63432 131.416 8.56965 131.267 8.459C131.117 8.34836 131.003 8.19654 130.938 8.0221L128.4 1.63027C128.333 1.44556 128.21 1.28599 128.049 1.17324C127.888 1.06048 127.697 1 127.5 1C127.303 1 127.112 1.06048 126.951 1.17324C126.79 1.28599 126.667 1.44556 126.6 1.63027L124.062 8.0221C123.997 8.19654 123.883 8.34836 123.733 8.459C123.584 8.56965 123.405 8.63432 123.22 8.64513L116.412 9.08356C115.524 9.14125 115.178 10.2835 115.859 10.8488L121.074 15.1985C121.219 15.319 121.328 15.4783 121.387 15.6579C121.446 15.8375 121.454 16.0302 121.408 16.2138L119.851 22.3518C119.585 23.3902 120.693 24.2324 121.581 23.6671L126.992 20.2404C127.144 20.1439 127.32 20.0927 127.5 20.0927C127.68 20.0927 127.856 20.1439 128.008 20.2404Z" fill="#F8D57E" stroke="#F8D57E" stroke-width="2" stroke-linecap="round" stroke-linejoin="round"/>
<path d="M157.008 20.2404L162.823 23.9325C163.573 24.4055 164.496 23.7017 164.276 22.8364L162.592 16.2138C162.546 16.0302 162.554 15.8375 162.613 15.6579C162.672 15.4783 162.781 15.319 162.926 15.1985L168.141 10.8488C168.822 10.2835 168.476 9.14125 167.588 9.08356L160.78 8.64513C160.595 8.63432 160.416 8.56965 160.267 8.459C160.117 8.34836 160.003 8.19654 159.938 8.0221L157.4 1.63027C157.333 1.44556 157.21 1.28599 157.049 1.17324C156.888 1.06048 156.697 1 156.5 1C156.303 1 156.112 1.06048 155.951 1.17324C155.79 1.28599 155.667 1.44556 155.6 1.63027L153.062 8.0221C152.997 8.19654 152.883 8.34836 152.733 8.459C152.584 8.56965 152.405 8.63432 152.22 8.64513L145.412 9.08356C144.524 9.14125 144.178 10.2835 144.859 10.8488L150.074 15.1985C150.219 15.319 150.328 15.4783 150.387 15.6579C150.446 15.8375 150.454 16.0302 150.408 16.2138L148.851 22.3518C148.585 23.3902 149.693 24.2324 150.581 23.6671L155.992 20.2404C156.144 20.1439 156.32 20.0927 156.5 20.0927C156.68 20.0927 156.856 20.1439 157.008 20.2404Z" fill="#F8D57E" stroke="#F8D57E" stroke-width="2" stroke-linecap="round" stroke-linejoin="round"/>
<path d="M186.008 20.2404L191.823 23.9325C192.573 24.4055 193.496 23.7017 193.276 22.8364L191.592 16.2138C191.546 16.0302 191.554 15.8375 191.613 15.6579C191.672 15.4783 191.781 15.319 191.926 15.1985L197.141 10.8488C197.822 10.2835 197.476 9.14125 196.588 9.08356L189.78 8.64513C189.595 8.63432 189.416 8.56965 189.267 8.459C189.117 8.34836 189.003 8.19654 188.938 8.0221L186.4 1.63027C186.333 1.44556 186.21 1.28599 186.049 1.17324C185.888 1.06048 185.697 1 185.5 1C185.303 1 185.112 1.06048 184.951 1.17324C184.79 1.28599 184.667 1.44556 184.6 1.63027L182.062 8.0221C181.997 8.19654 181.883 8.34836 181.733 8.459C181.584 8.56965 181.405 8.63432 181.22 8.64513L174.412 9.08356C173.524 9.14125 173.178 10.2835 173.859 10.8488L179.074 15.1985C179.219 15.319 179.328 15.4783 179.387 15.6579C179.446 15.8375 179.454 16.0302 179.408 16.2138L177.851 22.3518C177.585 23.3902 178.693 24.2324 179.581 23.6671L184.992 20.2404C185.144 20.1439 185.32 20.0927 185.5 20.0927C185.68 20.0927 185.856 20.1439 186.008 20.2404Z" fill="#F8D57E" stroke="#F8D57E" stroke-width="2" stroke-linecap="round" stroke-linejoin="round"/>
</svg>
